<svg xmlns="http://www.w3.org/2000/svg" xmlns:xlink="http://www.w3.org/1999/xlink" fill="none" version="1.1" width="174" height="38" viewBox="0 0 174 38"><defs><clipPath id="master_svg0_20_155"><rect x="0" y="0" width="174" height="38" rx="0"/></clipPath></defs><g clip-path="url(#master_svg0_20_155)"><g><path d="M-0.259765625,0.639892578125L-0.259765625,12.239892578125L6.170234375,12.239892578125L6.170234375,11.209892578125L0.950234375,11.209892578125L0.950234375,0.639892578125L-0.259765625,0.639892578125Z" fill="#FFFFFF" fill-opacity="1" style="mix-blend-mode:passthrough"/></g><g><path d="M13.2403125,0.10009765625L8.0703125,12.24009765625L9.3903125,12.24009765625L13.2403125,3.03009765625L17.1403125,12.24009765625L18.4603125,12.24009765625L13.2403125,0.10009765625Z" fill="#FFFFFF" fill-opacity="1" style="mix-blend-mode:passthrough"/></g><g><path d="M20.359375,12.24001953125L21.569375,12.24001953125L21.569375,3.33001953125L30.119374999999998,12.65001953125L30.119374999999998,0.64001853125L28.909375,0.64001853125L28.909375,9.57001953125L20.359375,0.27001953125L20.359375,12.24001953125Z" fill="#FFFFFF" fill-opacity="1" style="mix-blend-mode:passthrough"/></g><g><path d="M32.43968582,0.639892578125L35.7096875,0.639892578125C35.9196875,0.639892578125,36.1796875,0.649892778125,36.4796875,0.669893278125C36.7796875,0.689893678125,37.0696875,0.729892778125,37.3396875,0.779893578125C37.9796875,0.8998945781250001,38.5696875,1.109893578125,39.1296875,1.419895578125C39.6896875,1.729892578125,40.1696875,2.119892578125,40.5796875,2.6098925781249998C40.9896875,3.099892578125,41.3196875,3.659892578125,41.5596875,4.299892578125C41.7996875,4.939892578125,41.9196875,5.649892578125,41.9196875,6.419892578125C41.9196875,7.139892578125,41.8096875,7.809892578125,41.5896875,8.429892578125C41.3696875,9.039892578125,41.0696875,9.589892578125,40.6896875,10.079892578125C40.3096875,10.569892578125,39.8596875,10.979892578125,39.3396875,11.319892578125C38.8096875,11.659892578125,38.2496875,11.899892578125,37.6396875,12.059892578125C37.3696875,12.139892578125,37.0696875,12.179892578125,36.7596875,12.209892578125C36.449687499999996,12.229892578125,36.1096875,12.239892578125,35.7296875,12.239892578125L32.4296875,12.239892578125L32.4296875,0.639894485475L32.43968582,0.639892578125ZM35.6796875,11.209892578125C36.0096875,11.209892578125,36.3196875,11.199892578125,36.5996875,11.179892578125C36.8896875,11.159892578125,37.1496875,11.109892578125,37.3896875,11.049892578125C37.8796875,10.929892578125,38.3296875,10.719892578125,38.7396875,10.429892578125C39.1496875,10.139892578125,39.4896875,9.799892578125,39.7896875,9.399892578125C40.0796875,9.009892578125,40.3096875,8.559892578125,40.4696875,8.059892578125C40.6296875,7.559892578125,40.7096875,7.029892578125,40.7096875,6.459892578125C40.7096875,5.839892578125,40.6196875,5.259892578125,40.4596875,4.739892578125C40.2896875,4.219892578125,40.0496875,3.759892578125,39.7496875,3.359892578125C39.4396875,2.959892578125,39.0696875,2.629892578125,38.6496875,2.369892578125C38.2196875,2.1098925781249998,37.7496875,1.919892578125,37.2296875,1.799892578125C37.0096875,1.749892578125,36.7496875,1.709892578125,36.4696875,1.699892578125C36.1796875,1.689892578125,35.9196975,1.679892578125,35.6896975,1.679892578125L33.6596975,1.679892578125L33.6596975,11.209892578125L35.6896975,11.209892578125L35.6796875,11.209892578125Z" fill="#FFFFFF" fill-opacity="1" style="mix-blend-mode:passthrough"/></g><g><path d="M49.930156249999996,9.99998046875L44.71015625,0.22998046875L43.41015625,12.23998046875L44.62015625,12.23998046875L45.47015625,4.1699804687499995L49.91015625,12.52998046875L54.31015625,4.18998046875L55.180156249999996,12.23998046875L56.390156250000004,12.23998046875L55.08015625,0.22998046875L49.930156249999996,9.99998046875Z" fill="#FFFFFF" fill-opacity="1" style="mix-blend-mode:passthrough"/></g><g><path d="M63.4590625,0.10009765625L58.2890625,12.24009765625L59.6090625,12.24009765625L63.4590625,3.03009765625L67.3590625,12.24009765625L68.6790625,12.24009765625L63.4590625,0.10009765625Z" fill="#FFFFFF" fill-opacity="1" style="mix-blend-mode:passthrough"/></g><g><path d="M71.790078125,12.239892578125L70.580078125,12.239892578125L70.580078125,0.639892578125L74.710078125,0.639892578125C75.080078125,0.639892578125,75.440078125,0.669893278125,75.790078125,0.729892778125C76.140078125,0.789892578125,76.460078125,0.889892578125,76.760078125,1.039892578125C77.310078125,1.309892578125,77.760078125,1.719892578125,78.110078125,2.269892578125C78.450078125,2.819892578125,78.630078125,3.459892578125,78.630078125,4.189892578125C78.630078125,4.719892578125,78.550068125,5.199892578125,78.380078125,5.629892578125C78.210078125,6.059892578125,78.000078125,6.429892578125,77.740078125,6.729882578125C77.480068125,7.039892578125,77.190068125,7.279882578125,76.860078125,7.449892578125C76.530078125,7.619882578125,76.200078125,7.719892578125,75.870078125,7.759892578125C76.360078125,8.509892578125001,76.840078125,9.259892578125,77.320078125,10.009892578125C77.790078125,10.749892578125,78.270068125,11.499892578125,78.750078125,12.249892578125L77.310078125,12.249892578125C76.840068125,11.519892578125,76.380078125,10.789892578125,75.920078125,10.059892578125C75.460078125,9.329892578125,74.990078125,8.589892578125,74.530078125,7.849892578125L74.530078125,6.819892578125C74.880078125,6.819892578125,75.160068125,6.819892578125,75.370068125,6.799892578125C75.580068125,6.789892578125,75.800068125,6.739892578125,76.040068125,6.669892578125C76.240068125,6.609892578125,76.430068125,6.499892578125,76.600068125,6.339892578125C76.770068125,6.189892578125,76.910068125,5.999892578125,77.030068125,5.789892578125C77.150068125,5.569892578125,77.250068125,5.329892578125,77.320068125,5.059892578125C77.390068125,4.789892578125,77.430068125,4.509892578125,77.430068125,4.219892578125C77.430068125,3.679892578125,77.330068125,3.219892578125,77.120068125,2.849892578125C76.910068125,2.479892578125,76.630078125,2.189892578125,76.270068125,1.989892578125C76.060078125,1.879892578125,75.820078125,1.789892578125,75.560078125,1.749892578125C75.300068125,1.699892578125,75.020068125,1.679892578125,74.730068125,1.679892578125L71.810078125,1.679892578125L71.810078125,12.249892578125L71.790078125,12.239892578125Z" fill="#FFFFFF" fill-opacity="1" style="mix-blend-mode:passthrough"/></g><g><path d="M80.650390625,12.239892578125L81.860390625,12.239892578125L81.860390625,0.639892578125L80.650390625,0.639892578125L80.650390625,12.239892578125ZM87.190390625,0.639892578125L82.180390625,5.649892578125L82.180390625,7.109892578125L87.440390625,12.249892578125L89.150390625,12.249892578125L83.070390625,6.339892578125L88.770390625,0.649890898125L87.180390625,0.649890898125L87.190390625,0.639892578125Z" fill="#FFFFFF" fill-opacity="1" style="mix-blend-mode:passthrough"/></g><g><path d="M0.16015625,19.75L7.45015625,37.29L12.14015625,37.29L19.43015625,19.75L15.69015625,19.75L10.35015625,35.879999999999995L4.08015625,19.75L0.16015625,19.75Z" fill="#FFFFFF" fill-opacity="1" style="mix-blend-mode:passthrough"/></g><g><path d="M42.6190625,20.729892578125C42.0390625,20.299892578125,41.3990625,19.969894578125,40.7390625,19.749893578125C40.019062500000004,19.509891578125,39.2990625,19.349891578125,38.5990625,19.269893578125C37.859072499999996,19.179893478125,37.2290725,19.139892578125,36.7290725,19.139892578125C34.9190725,19.139892578125,33.3090725,19.319892578125,31.9290725,19.659892578125C30.9690725,19.899894578125,30.3090725,20.129894578125,29.8590725,20.319892578125L29.8590725,22.629892578125002C30.1190725,22.519892578125,30.3890725,22.409892578125,30.6690725,22.299892578125C32.0590725,21.779892578125,33.4690725,21.509892578125,34.859072499999996,21.509892578125C36.569072500000004,21.509892578125,37.9590725,21.869892578125,38.9890625,22.569892578125C39.8190625,23.139892578125,40.809062499999996,24.269892578125,40.809062499999996,26.409892578125L40.809062499999996,33.549892578125C40.809062499999996,34.719892578125,40.1590625,35.639892578125,39.0690625,36.009892578125005C38.4090625,36.239892578125,37.4390725,36.339892578125,35.9190725,36.339892578125C35.1890725,36.339892578125,34.4890725,36.169892578125,33.859072499999996,35.839892578125C33.2290725,35.519892578124995,32.7090725,35.079892578125,32.3090725,34.529892578125C31.8590725,33.909892578124996,31.6290725,33.209892578125,31.6290725,32.449892578125C31.6290725,31.159892578125,32.1890725,30.119892578125,33.1990725,29.499892578125C34.0090725,29.009892578124997,35.1490725,28.769892578125003,36.6990725,28.769892578125003C37.5190725,28.769892578125003,38.3190625,28.869892578125,39.0890625,29.059902578124998L38.5390625,28.749892578125C38.4190625,28.679892578125,38.2790625,28.609902578125002,38.1390625,28.539902578125C37.5390725,28.249892578125,36.8490725,28.019892578125003,36.0990725,27.839892578125C35.3490725,27.659892578125,34.5790625,27.579902578125,33.809062499999996,27.579902578125C32.3790625,27.579902578125,31.2190625,27.799902578125,30.3590625,28.229902578125C29.5490625,28.629902578124998,28.9790645,29.149892578124998,28.6190645,29.799892578125C28.2290645,30.489892578125,28.0390625,31.289892578125,28.0390625,32.219892578125C28.0390625,33.349892578125,28.2190625,34.299892578125,28.5890615,35.019892578125C28.9390605,35.719892578125,29.4090625,36.259892578125005,30.0190625,36.649892578125005C30.6890625,37.089892578125,31.5090625,37.399892578125005,32.4390625,37.589892578125C33.4590625,37.799892578125,34.5890625,37.899892578125005,35.7990625,37.899892578125005C37.8690625,37.899892578125005,39.6090625,37.739892578125,40.9790625,37.429892578125C42.1890625,37.159892578124996,43.0890625,36.739892578125,43.6490625,36.209892578125C44.1090625,35.769892578124995,44.3290625,35.249892578125,44.3290625,34.559892578125L44.3690625,24.899902578125C44.3690625,23.819892578125,44.1990625,22.939902578125,43.8790625,22.279902578125C43.5490625,21.619902578125,43.1390625,21.109902578125,42.6190625,20.729892578125Z" fill="#FFFFFF" fill-opacity="1" style="mix-blend-mode:passthrough"/></g><g><path d="M69.639140625,19.749931640625C68.469140625,19.369930640625,67.049140625,19.179931640625,65.409130625,19.179931640625C64.589130625,19.179931640625,63.669140625,19.249931340625,62.659130625,19.389930640625C61.619130625,19.529929640625,60.589130625,19.719932640625,59.569140625,19.939929640625C58.569140625,20.159931640625,57.639140625,20.399931640625,56.819137625,20.659931640625C56.459136625,20.769931640625,56.139137625,20.879931640625,55.869140625,20.989931640625L55.869140625,37.299931640625005L59.539140625,37.299931640625005L59.539140625,23.119931640625L60.069140625,22.659931640625C60.449130625,22.329931640625,60.989140625,22.089931640625,61.809130625,21.869931640625C63.329130625,21.469931640625,64.849140625,21.539931640625,65.959140625,21.869931640625C66.639140625,22.069931640625,67.219140625,22.389931640625,67.689140625,22.809931640625C68.179140625,23.249931640625,68.539140625,23.809931640625,68.769140625,24.469931640625C68.979140625,25.049931640625,69.07914062500001,25.709931640625,69.07914062500001,26.419931640625002L69.07914062500001,37.299931640625005L72.709140625,37.299931640625005L72.709140625,24.879931640625C72.709140625,23.359931640625,72.439140625,22.189941640625,71.899140625,21.399941640625C71.369140625,20.629931640625,70.629140625,20.089935640625,69.629140625,19.759937640625L69.639140625,19.749931640625Z" fill="#FFFFFF" fill-opacity="1" style="mix-blend-mode:passthrough"/></g><g><path d="M97.6190625,20.729892578125C97.0390625,20.299892578125,96.3990625,19.969894578125,95.7390625,19.749893578125C95.0190625,19.509891578125,94.2990625,19.349891578125,93.5990625,19.269893578125C92.8590725,19.179893478125,92.2290725,19.139892578125,91.7290725,19.139892578125C89.9190725,19.139892578125,88.3090725,19.319892578125,86.9290725,19.659892578125C85.9690725,19.899894578125,85.3090625,20.129894578125,84.8590725,20.319892578125L84.8590725,22.629892578125002C85.1190725,22.519892578125,85.3890725,22.409892578125,85.6690625,22.299892578125C87.0590625,21.779892578125,88.4690725,21.509892578125,89.8590725,21.509892578125C91.5690725,21.509892578125,92.9590725,21.869892578125,93.9890625,22.569892578125C94.8190625,23.139892578125,95.8090625,24.269892578125,95.8090625,26.409892578125L95.8090625,33.549892578125C95.8090625,34.719892578125,95.1590625,35.639892578125,94.0690625,36.009892578125005C93.4090625,36.239892578125,92.4390725,36.339892578125,90.9190625,36.339892578125C90.1890625,36.339892578125,89.4890625,36.169892578125,88.8590725,35.839892578125C88.2290725,35.519892578124995,87.7090725,35.079892578125,87.3090625,34.529892578125C86.8590725,33.909892578124996,86.6290625,33.209892578125,86.6290625,32.449892578125C86.6290625,31.159892578125,87.1890625,30.119892578125,88.1990625,29.499892578125C89.0090625,29.009892578124997,90.1490625,28.769892578125003,91.6990625,28.769892578125003C92.5190625,28.769892578125003,93.3190625,28.869892578125,94.0890625,29.059902578124998L93.5390625,28.749892578125C93.4190625,28.679892578125,93.2790625,28.609902578125002,93.1390625,28.539902578125C92.5390625,28.249892578125,91.8490625,28.019892578125003,91.0990625,27.839892578125C90.3490625,27.659892578125,89.5790625,27.579902578125,88.8090625,27.579902578125C87.3790625,27.579902578125,86.2190625,27.799902578125,85.3590625,28.229902578125C84.5490625,28.629902578124998,83.9790645,29.149892578124998,83.6190645,29.799892578125C83.2290645,30.489892578125,83.0390625,31.289892578125,83.0390625,32.219892578125C83.0390625,33.349892578125,83.2190625,34.299892578125,83.5890655,35.019892578125C83.9390645,35.719892578125,84.4090625,36.259892578125005,85.0190625,36.649892578125005C85.6890625,37.089892578125,86.5090625,37.399892578125005,87.4390625,37.589892578125C88.4590625,37.799892578125,89.5890625,37.899892578125005,90.7990625,37.899892578125005C92.8690625,37.899892578125005,94.6090625,37.739892578125,95.9790625,37.429892578125C97.1890625,37.159892578124996,98.0890625,36.739892578125,98.6490625,36.209892578125C99.1090625,35.769892578124995,99.32906249999999,35.249892578125,99.32906249999999,34.559892578125L99.3690625,24.899902578125C99.3690625,23.819892578125,99.1990625,22.939902578125,98.8790625,22.279902578125C98.5490625,21.619902578125,98.1390625,21.109902578125,97.6190625,20.729892578125Z" fill="#FFFFFF" fill-opacity="1" style="mix-blend-mode:passthrough"/></g><g><path d="M122.020234375,29.129956328124997C121.53023437499999,28.789956328125,121.000234375,28.539956328125,120.430234375,28.369956328125C119.730224375,28.159956328125,119.040224375,27.979956328125,118.400224375,27.819956328125002L118.320224375,27.799956328125C117.770214375,27.639956328125002,117.260224375,27.479956328125,116.780224375,27.329956328125C116.100234375,27.119956328125,115.520234375,26.799956328125,115.080234375,26.399956328125C114.660234375,26.019956328124998,114.150234375,25.319956328125002,114.150234375,24.189956328125C114.150234375,23.269956328125,114.560234375,22.439956328125,115.300234375,21.849956328125C115.970234375,21.319956328125,116.930234375,21.079956328125,118.320234375,21.079956328125C119.710234375,21.079956328125,121.040234375,21.369956328125,122.180234375,21.929956328125C122.350234375,22.009956328125,122.520234375,22.099956328125,122.690234375,22.179956328125L122.690234375,20.509956328125C122.190234375,20.239956328125,121.650234375,20.019954328125,121.070234375,19.839958328125C120.210234375,19.569957328125,118.940234375,19.409957928125,117.300234375,19.359958648125C116.520234375,19.329959828125,115.680234375,19.429958328125,114.800234375,19.639957328125C113.950234375,19.839958328125,113.150234375,20.179958328125,112.420234375,20.639956328125C111.750234375,21.059956328125,111.220237375,21.609956328125,110.820236375,22.309956328125C110.430236375,22.969956328125,110.240234375,23.869956328125,110.240234375,24.969956328125C110.240234375,25.779956328125,110.350235375,26.479956328125,110.570236375,27.039956328125C110.780235375,27.589956328124998,111.050239375,28.019956328124998,111.400234375,28.369956328125C111.780234375,28.749956328125002,112.180234375,29.029956328125,112.630244375,29.239956328125C113.110244375,29.469936328125,113.600244375,29.619936328125,114.090244375,29.709936328125C114.910244375,29.889936328125,115.630234375,30.069936328125,116.300244375,30.249936328125003C117.110244375,30.469936328125,117.760254375,30.739936328124998,118.300244375,31.079936328125C119.450244375,31.809936328124998,119.620254375,32.799936328125,119.620254375,33.329936328125C119.620254375,34.129936328125,119.300244375,34.849936328125,118.700254375,35.429936328124995C118.090254375,36.009936328125,117.200254375,36.279936328125004,115.900254375,36.279936328125004C114.750254375,36.279936328125004,113.650254375,36.119936328125,112.63025437499999,35.809936328125005C111.840254375,35.569936328124996,111.100257375,35.269936328125,110.410255375,34.939936328125L110.410255375,36.929936328124995C110.980255375,37.129936328125,111.580254375,37.319936328124996,112.210254375,37.519936328125C113.110264375,37.799936328125,114.230254375,37.939936328125,115.530254375,37.939936328125C117.050264375,37.939936328125,118.480254375,37.749936328125,119.770264375,37.369936328125C120.930234375,37.029936328125004,121.830234375,36.489936328125,122.520234375,35.709936328124996C123.150234375,34.999936328125,123.470234375,33.999936328125,123.490234375,32.669936328125004C123.490234375,31.699936328125,123.350234375,30.929936328125002,123.070234375,30.399936328125C122.790234375,29.859936328125002,122.45023437500001,29.459936328125,122.03023437499999,29.169936328125L122.020234375,29.129956328124997Z" fill="#FFFFFF" fill-opacity="1" style="mix-blend-mode:passthrough"/></g><g><path d="M135.86921875,12.159912109375C134.80921975,12.159912109375,133.94921875,13.019913109375,133.94921875,14.079912109375L133.94921875,15.619912109375L137.77921875,15.619912109375L137.77921875,14.079912109375C137.77921875,13.019909109375,136.91921875,12.159912109375,135.85921875,12.159912109375L135.86921875,12.159912109375Z" fill="#FFFFFF" fill-opacity="1" style="mix-blend-mode:passthrough"/></g><g><path d="M137.7090725,20.110107421875L134.0390625,20.110107421875L134.0390625,37.290107421875L137.7790725,37.290107421875L137.7090725,20.110107421875Z" fill="#FFFFFF" fill-opacity="1" style="mix-blend-mode:passthrough"/></g><g><path d="M156.879286875,19.139896392825C155.799286875,19.139896392825,154.689286875,19.289897578125,153.569286875,19.589897578125C152.399296875,19.909896578125,151.349286875,20.269892578125,150.459286875,20.679892578125C149.919295875,20.929892578125,149.549285875,21.129902578125,149.279296875,21.289902578125L149.279296875,37.289892578125L152.949296875,37.289892578125L152.949296875,21.899902578125L154.279296875,21.719902578125C154.739306875,21.659892578125,155.319286875,21.619902578125,156.059296875,21.589892578125C156.789286875,21.559902578125,157.569286875,21.559902578125,158.379306875,21.589892578125C159.199306875,21.619892578125,159.989296875,21.679892578125,160.729296875,21.759892578125L160.729296875,19.649894578125C160.539296875,19.569892578125,160.289296875,19.489894578125,159.979296875,19.409892578125C159.499296875,19.289894578125,158.569306875,19.139892578125,156.859316875,19.139892578125L156.879286875,19.139896392825Z" fill="#FFFFFF" fill-opacity="1" style="mix-blend-mode:passthrough"/></g><g><path d="M172.339921875,12.159912109375C171.279922875,12.159912109375,170.419921875,13.019913109375,170.419921875,14.079912109375L170.419921875,15.619912109375L174.249921875,15.619912109375L174.249921875,14.079912109375C174.249921875,13.019909109375,173.389921875,12.159912109375,172.329921875,12.159912109375L172.339921875,12.159912109375Z" fill="#FFFFFF" fill-opacity="1" style="mix-blend-mode:passthrough"/></g><g><path d="M174.17999,20.110107421875L170.5,20.110107421875L170.5,37.290107421875L174.25,37.290107421875L174.17999,20.110107421875Z" fill="#FFFFFF" fill-opacity="1" style="mix-blend-mode:passthrough"/></g></g></svg>